# xmcd
#
# Track frame offsets:
#	150
#	15512
#	31145
#	46595
#	59155
#	75567
#	92070
#	105087
#	121067
#	135205
#	148120
#	161405
#	176112
#	189040
#	207835
#	220985
#	237477
#	253475
#	269422
#	284082
#
# Disc length: 3956
#
# Revision: 1
# Processed by: cddbd v1.5.1PL0 Copyright (c) Steve Scherf et al.
# Submitted via: VisiTrax 2.9.2.167 - For more info visit www.synapsa.com
# Normalized: r0:DSETVAR1
#
DISCID=170f7214
DTITLE=Various Artist - Country Line Dancing - More great line dancing songs
DYEAR=1900
DGENRE=
TTITLE0=Cyrus, Billy Ray - Achy breaky heart
TTITLE1=Loveless, Patty - Blame it on your heart
TTITLE2=Alabama - Reckless
TTITLE3=Walker, Clay - What's it to you
TTITLE4=Judd, Wynonna - No one else on earth
TTITLE5=Carpenter, Mary Chapin - I feel lucky
TTITLE6=Strait, George - Easy come easy go
TTITLE7=Hill, Faith - Piece of my heart
TTITLE8=Cyrus, Billy Ray - words by heart
TTITLE9=Keith, Toby - A little less talk and a lot more action
TTITLE10=Gill, Vince - One more last chancce
TTITLE11=Travis, Randy - Before you kill us all
TTITLE12=Shenadoah - If Bubba can dance, I can too
TTITLE13=Tippin, Aaron - The call of the wild
TTITLE14=Strait, George - The love bug
TTITLE15=Brooks and Dunn - That ain't no way to go
TTITLE16=Brooks, Garth - American redneck bar association
TTITLE17=Dwight Yoakam - Fast as you
TTITLE18=Alabama - You can't keep a good man down
TTITLE19=Kentucky Headhunters - Dumas Walker
EXTD=
EXTT0=
EXTT1=
EXTT2=
EXTT3=
EXTT4=
EXTT5=
EXTT6=
EXTT7=
EXTT8=
EXTT9=
EXTT10=
EXTT11=
EXTT12=
EXTT13=
EXTT14=
EXTT15=
EXTT16=
EXTT17=
EXTT18=
EXTT19=
PLAYORDER=
